<?xml version="1.0" standalone="no"?><!DOCTYPE svg PUBLIC "-//W3C//DTD SVG 1.1//EN" "http://www.w3.org/Graphics/SVG/1.1/DTD/svg11.dtd"><svg t="1604415874261" class="icon" viewBox="0 0 1024 1024" version="1.1" xmlns="http://www.w3.org/2000/svg" p-id="2425" xmlns:xlink="http://www.w3.org/1999/xlink" width="200" height="200"><defs><style type="text/css"></style></defs><path d="M199.04512 788.48H816.3328a20.48 20.48 0 1 0 0-40.96H199.0656a20.48 20.48 0 0 0-0.02048 40.96zM199.04512 624.64h614.4a20.48 20.48 0 1 0 0-40.96h-614.4a20.48 20.48 0 1 0 0 40.96zM813.44512 256h-614.4a20.48 20.48 0 1 0 0 40.96h614.4a20.48 20.48 0 1 0 0-40.96zM816.3328 419.84H199.0656a20.48 20.48 0 1 0 0 40.96h617.2672a20.48 20.48 0 1 0 0-40.96z" fill="" p-id="2426"></path></svg>